<svg xmlns="http://www.w3.org/2000/svg" viewBox="0 0 280 240" role="img"><rect width="280" height="240" rx="20" fill="#f3f8fa"/><g transform="translate(86 143) rotate(0)"><path d="M0 -27 C-12 -12 -14 14 -8 27 H8 C14 14 12 -12 0 -27Z" fill="white" stroke="#173f55" stroke-width="3"/><path d="M-8 8H8" stroke="#173f55" stroke-width="2"/></g><g transform="translate(194 97) rotate(180)"><path d="M0 -27 C-12 -12 -14 14 -8 27 H8 C14 14 12 -12 0 -27Z" fill="white" stroke="#173f55" stroke-width="3"/><path d="M-8 8H8" stroke="#173f55" stroke-width="2"/></g><path d="M86 105V45M194 135V195" stroke="#168b62" stroke-width="5" stroke-dasharray="10 7"/><path d="M86 101Q104 81 126 81M194 139Q177 160 154 160" fill="none" stroke="#d93432" stroke-width="4"/></svg>